<?xml version="1.0" encoding="UTF-8"?>
<svg id="AEON" xmlns="http://www.w3.org/2000/svg" viewBox="0 0 1157.1 873.94">
  <g>
    <path d="M322.54,395.46l198.13,232.98c7.32,8.61,20.96-.08,16.26-10.35l-106.57-232.98c-1.58-3.46-5.04-5.68-8.85-5.68h-91.56c-8.3,0-12.79,9.72-7.41,16.04h0Z"/>
    <path d="M381.82,267.93l-62.51,80.54c-4.96,6.39-.41,15.7,7.69,15.7h87.54c6.56,0,11.24-6.36,9.29-12.62l-25.03-80.54c-2.34-7.51-12.16-9.29-16.98-3.08h0Z"/>
    <path d="M537.1,245.85h-117.4c-6.47,0-11.14,6.2-9.35,12.43l23,79.85c1.95,6.78,10.25,9.29,15.64,4.74l94.4-79.85c6.92-5.86,2.78-17.16-6.29-17.16h0Z"/>
    <path d="M636.44,628.45l198.13-232.98c5.37-6.32.88-16.04-7.41-16.04h-91.56c-3.81,0-7.27,2.22-8.85,5.68l-106.57,232.98c-4.7,10.28,8.94,18.96,16.26,10.35h0Z"/>
    <path d="M837.79,348.46l-62.51-80.54c-4.82-6.22-14.65-4.43-16.98,3.08l-25.03,80.54c-1.95,6.26,2.73,12.62,9.29,12.62h87.54c8.09,0,12.65-9.31,7.69-15.7h0Z"/>
    <path d="M578.55,378.56h-116.75c-7.01,0-11.72,7.18-8.93,13.61l116.75,269.14c3.39,7.81,14.47,7.81,17.86,0l116.75-269.14c2.79-6.43-1.92-13.61-8.93-13.61h-116.75Z"/>
    <path d="M578.55,364.2h105.04c9.06,0,13.21-11.3,6.29-17.16l-105.04-89.05c-3.63-3.08-8.96-3.08-12.59,0l-105.04,89.05c-6.91,5.86-2.77,17.16,6.29,17.16h105.05Z"/>
    <path d="M737.41,245.85h-117.4c-9.07,0-13.21,11.31-6.29,17.16l94.4,79.85c5.39,4.56,13.68,2.04,15.64-4.74l23-79.85c1.79-6.22-2.88-12.43-9.35-12.43h0Z"/>
  </g>
  <g>
    <path d="M1139.19,68.29c-71.36-114.25-283.46-94.99-650.05,133.21-5.65,3.52-3.08,12.26,3.58,12.14l152.52-2.58c14.97-.25,29.31-5.92,40.49-15.88,91.48-81.5,313.84-188.21,384.96-106.02,66.74,77.14-65.04,258.25-159.37,360.1l15.84-50.57c2.28-7.21-1.34-12.23-5.77-13.88-6.66-2.4-15.28,2.53-18.82,10.75l-28.66,66.08c-19.58,45.53-62.96,88.24-103.16,101.56l-18.22,6.03c-7.84,2.6-13.81,11.81-12.27,18.96,1.1,5.13,5.67,8.32,11.11,7.76l16.26-1.68c9.36-.97,22.22-.04,30.27,9.88,8.93,11,9.86,30.41,2.54,53.28l-15.67,50.75c-17.68,1.74-31.55,7.06-43.42,15.29-15.38,10.69-24.57,25.95-24.57,43.4,0,27.65,25.72,45.17,63.63,45.17,23.73,0,43.71-6.03,58.07-16.13,15.17-10.73,23.78-25.7,23.78-43,0-24.68-16.78-40.7-47.43-44.43l19.43-49.99c19.48-45.73,62.95-88.64,103.36-102.02l17.85-5.91c7.84-2.6,13.8-11.81,12.27-18.96h0c-1.1-5.13-5.67-8.32-11.11-7.76l-16.6,1.72c-7.53.78-17.31.32-25.04-5.04,49.72-44.87,92.91-90.09,129.54-135.66,61.74-76.55,151.03-226.33,94.68-316.55l-.02-.02ZM828.98,754.24c0,11.94-6.05,23.15-16.02,30.41-7.56,5.54-17.4,8.86-28.03,8.86-23.44,0-34.89-11.17-34.89-28.21,0-11.3,6.01-22.72,16.43-30.31,7.63-5.56,17.47-9.06,28.71-9.06,25.84,0,33.8,13.62,33.8,28.32h0Z"/>
    <path d="M970.18,128.1c1.34-4.17-.75-7.09-3.31-8.06-3.85-1.41-8.86,1.42-10.93,6.18l-16.79,38.21c-11.46,26.33-36.72,50.96-60.05,58.57l-10.57,3.45c-4.55,1.48-8.03,6.81-7.16,10.95.62,2.98,3.26,4.84,6.42,4.52l9.43-.93c5.43-.54,12.88.04,17.51,5.81,5.15,6.4,5.63,17.65,1.33,30.88l-13.6,42.23c-1.35,4.14.67,7.05,3.15,8.03l.15.06c3.87,1.42,8.89-1.43,10.95-6.2l18.95-43.42c11.41-26.45,36.71-51.19,60.16-58.84l10.36-3.38c4.55-1.48,8.03-6.81,7.16-10.95h0c-.63-2.98-3.27-4.83-6.42-4.52l-9.62.95c-5.42.53-12.86-.04-17.5-5.78-5.2-6.44-5.71-17.32-1.43-30.64l11.81-37.11h0Z"/>
    <path d="M465.76,726.77c-60.19,38.58-205.48,117.66-328.97,74.29-48.24-16.94-77.78-57.06-56.89-140.61,29.1-116.41,148.11-220.76,206.37-267.08,12.72-10.11,2.01-26.69,7.01-42.15,3.36-10.38,28.57-33.36,38.51-47.64,10.48-15.06-3.61-13.8-15.38-6.79-282.41,168.21-152.5,119.57-210.79,198.93C-48.63,705.73,5.26,794.33,27.13,820.21c71.95,85.11,284.27,58.35,384.36-5.67,3.63-2.32,6.83-5.27,9.4-8.73l52.59-70.74c3.82-5.14-2.33-11.75-7.73-8.29h0Z"/>
    <path d="M702.27,709.18h-76.09c-3.08,0-5.77,2.08-6.55,5.07l-22.89,67.38c-2.27,6.69-11.72,6.72-14.04.05l-23.3-67.11c-.65-3.14-3.42-5.39-6.62-5.39h-31.81c-2.2,0-4.25,1.07-5.52,2.86l-61.94,87.52c-3.17,4.48.03,10.68,5.52,10.68h12.63c5.12,0,9.89-2.59,12.68-6.88l6.48-9.95c4.2-6.45,11.37-10.34,19.07-10.34h20.34c7.91,0,14.41,6.21,14.79,14.11l.34,7.27c.47,3.32,3.32,5.79,6.67,5.79h130.74c3.09,0,5.78-2.09,6.55-5.08l1.41-5.47c1.1-4.28-2.13-8.45-6.55-8.45h-40.01c-6.81,0-11.79-6.43-10.08-13.03l.62-2.39c1.19-4.6,5.34-7.8,10.08-7.8h42.25c3.07,0,5.75-2.06,6.54-5.03l1.46-5.47c1.14-4.29-2.09-8.51-6.54-8.51h-33.08c-6.57,0-11.6-5.38-10.66-11.88.75-5.2,5.18-8.94,10.31-8.94h45.75c3.07,0,5.75-2.06,6.54-5.03l1.46-5.47c1.14-4.29-2.09-8.51-6.54-8.51h-.01ZM534.76,765.71h-18.49c-3.89,0-6.24-4.31-4.12-7.58l14.2-21.92c2.42-3.73,8.16-2.58,8.95,1.79l6.06,18.62c1.46,4.49-1.88,9.09-6.6,9.09h0Z"/>
    <path d="M1008.34,709.18h-15.61c-3.09,0-5.78,2.09-6.55,5.08l-9.08,35.24c-.04.14-.07.28-.11.43-2.25,8.96-14.47,10.28-18.45,1.94-.72-1.51-21.19-39.17-21.19-39.17-1.19-2.17-3.46-3.52-5.93-3.52h-29.33c-3.08,0-5.77,2.08-6.55,5.07l-22.72,87.52c-1.11,4.29,2.12,8.47,6.55,8.47h15.45c3.09,0,5.78-2.09,6.55-5.08l8.55-33.17c.79-3.06,1.65-6.43,2.51-9.87,2.24-8.96,14.46-10.19,18.46-1.86,1.34,2.79,24.45,46.4,24.45,46.4,1.18,2.2,3.47,3.57,5.96,3.57h24.33c3.08,0,5.77-2.08,6.55-5.07l22.72-87.52c1.11-4.29-2.12-8.47-6.55-8.47h-.01Z"/>
  </g>
</svg>