<?xml version="1.0" standalone="no"?>
<!DOCTYPE svg PUBLIC "-//W3C//DTD SVG 20010904//EN"
 "http://www.w3.org/TR/2001/REC-SVG-20010904/DTD/svg10.dtd">
<svg version="1.0" xmlns="http://www.w3.org/2000/svg"
 width="890.000000pt" height="784.000000pt" viewBox="0 0 890.000000 784.000000"
 preserveAspectRatio="xMidYMid meet">

<g transform="translate(0.000000,784.000000) scale(0.100000,-0.100000)"
fill="#000000" stroke="none">
<path d="M7105 7075 c-127 -15 -374 -60 -384 -71 -3 -4 5 -4 19 -1 80 19 344
58 460 68 160 14 426 7 554 -15 97 -17 229 -57 209 -63 -7 -3 -35 3 -63 12
-28 9 -55 15 -62 13 -6 -2 33 -17 88 -32 112 -32 248 -98 334 -163 32 -24 93
-80 136 -126 43 -45 74 -75 69 -67 -8 13 -7 13 8 1 19 -15 23 -36 5 -25 -7 4
-8 3 -4 -5 4 -6 11 -9 16 -6 24 15 128 -207 137 -293 3 -29 10 -55 14 -58 5
-3 9 -62 8 -132 0 -70 -4 -119 -8 -108 -5 12 -12 -16 -20 -80 -18 -142 -45
-257 -85 -362 -31 -81 -78 -179 -61 -127 46 138 61 189 90 303 50 189 45 248
-6 92 -30 -91 -163 -408 -206 -494 -102 -198 -283 -492 -411 -666 -132 -179
-173 -230 -325 -408 -158 -183 -242 -270 -640 -662 -200 -196 -220 -221 -242
-295 -15 -49 -42 -65 -115 -65 -30 0 -60 -4 -67 -8 -6 -4 -36 -70 -66 -147
-61 -158 -130 -300 -176 -362 -30 -42 -71 -72 -201 -148 -36 -21 -93 -55 -127
-77 -34 -22 -84 -48 -112 -59 -50 -19 -51 -19 -51 1 0 39 25 72 110 144 173
147 279 302 364 530 46 123 107 341 106 381 -1 16 4 55 10 85 8 35 9 92 5 160
-13 187 -11 418 3 432 10 10 14 10 21 0 7 -11 10 -10 15 3 3 9 4 21 1 26 -7
11 40 23 61 15 8 -3 12 -11 8 -17 -4 -7 -3 -9 3 -6 25 16 41 -29 47 -138 7
-127 35 -439 42 -472 6 -30 15 -29 55 4 l33 28 -20 -30 -19 -30 30 22 c96 69
575 599 726 803 262 354 424 601 544 832 135 262 210 458 233 611 14 87 0 68
-25 -36 -24 -105 -82 -269 -91 -263 -4 2 -8 -7 -8 -21 -1 -13 -10 -30 -20 -37
-9 -7 -14 -17 -11 -23 3 -5 0 -10 -7 -10 -8 0 4 44 37 130 55 147 92 313 108
490 6 67 18 136 25 154 13 28 12 42 0 103 -41 193 -190 335 -442 419 -133 44
-227 54 -447 48 -316 -8 -615 -77 -967 -221 -298 -123 -681 -348 -917 -539
-51 -41 -106 -80 -123 -87 -36 -15 -70 -10 -250 38 -221 59 -349 62 -585 11
-188 -40 -175 -35 -175 -79 0 -30 6 -43 26 -59 24 -19 40 -21 153 -21 198 0
469 -50 636 -116 92 -37 173 -52 219 -40 14 3 63 39 108 79 46 40 119 99 163
132 44 33 94 70 110 82 111 83 408 257 561 328 181 84 412 167 581 209 202 50
355 70 543 70 157 -1 185 -4 274 -27 148 -40 238 -88 322 -172 153 -154 189
-339 119 -615 -102 -406 -446 -996 -904 -1550 -218 -264 -541 -610 -569 -610
-4 0 -9 17 -10 38 -10 159 -45 513 -53 539 -28 88 -150 82 -177 -10 -15 -47
-21 -133 -23 -297 -3 -334 -23 -499 -84 -686 -75 -228 -172 -382 -347 -548
-120 -114 -131 -127 -144 -176 -18 -68 -5 -119 38 -155 37 -31 56 -29 137 19
31 18 71 38 90 44 46 16 134 15 175 -2 37 -15 98 -93 114 -146 23 -72 44 -247
62 -520 15 -222 19 -248 47 -281 33 -39 93 -41 127 -4 38 41 45 94 56 416 16
487 41 624 157 869 80 169 186 306 318 410 72 58 99 107 98 181 -1 76 -23 116
-68 125 -19 3 -43 3 -52 0 -10 -4 -15 -5 -13 -2 3 3 88 89 190 193 303 308
450 472 578 643 39 52 92 122 118 155 188 244 412 629 539 929 171 403 209
773 109 1073 -49 148 -166 314 -296 422 -155 130 -411 231 -653 260 -120 14
-421 12 -570 -4z m910 -95 c13 -6 15 -9 5 -9 -8 0 -22 4 -30 9 -18 12 -2 12
25 0z m165 -814 c0 -44 -2 -77 -4 -75 -2 2 -6 45 -10 94 -4 62 -3 85 4 75 5
-8 10 -51 10 -94z m-3340 -275 c122 -27 247 -64 344 -101 43 -17 94 -30 114
-31 l37 -1 -35 -10 c-31 -8 -58 -2 -201 46 -205 69 -354 96 -564 103 -88 3
-164 10 -170 15 -19 20 369 2 475 -21z m3161 -528 c-12 -20 -14 -14 -5 12 4 9
9 14 11 11 3 -2 0 -13 -6 -23z m-387 -675 c-31 -53 -123 -183 -203 -288 -96
-126 -299 -370 -309 -370 -7 0 8 20 178 235 85 109 195 251 244 316 48 65 90
119 93 119 2 0 1 -6 -3 -12z m-584 -1252 c0 -2 -29 -32 -65 -67 -35 -34 -62
-65 -60 -70 8 -12 62 7 147 51 81 42 118 50 118 25 0 -8 5 -15 10 -15 13 0 29
-41 23 -57 -3 -7 -14 -13 -24 -13 -10 0 -59 -27 -108 -59 -97 -63 -170 -93
-228 -93 -93 0 -81 129 13 148 21 4 30 11 30 24 -1 11 26 41 64 74 59 50 80
64 80 52z m-606 -1226 c4 -21 3 -31 -3 -25 -5 6 -12 28 -16 50 -8 49 9 27 19
-25z"/>
<path d="M7443 7053 c15 -2 37 -2 50 0 12 2 0 4 -28 4 -27 0 -38 -2 -22 -4z"/>
<path d="M7783 7023 c9 -2 23 -2 30 0 6 3 -1 5 -18 5 -16 0 -22 -2 -12 -5z"/>
<path d="M6928 7013 c6 -2 18 -2 25 0 6 3 1 5 -13 5 -14 0 -19 -2 -12 -5z"/>
<path d="M6555 6970 c-60 -15 -103 -28 -95 -28 8 -1 67 12 130 27 63 16 106
29 95 29 -11 0 -69 -12 -130 -28z"/>
<path d="M6380 6930 c-14 -5 -62 -19 -108 -31 -46 -12 -81 -23 -78 -26 4 -4
237 55 245 63 7 7 -33 3 -59 -6z"/>
<path d="M5990 6816 c-363 -118 -602 -228 -1255 -583 -420 -228 -435 -238
-435 -261 0 -12 2 -14 8 -4 5 7 15 10 23 7 8 -3 28 9 47 30 23 23 43 35 61 35
15 0 37 9 49 20 12 11 26 20 32 20 5 0 10 4 10 10 0 5 10 14 21 21 15 8 19 8
15 0 -13 -21 15 -11 82 28 155 89 213 121 315 175 59 32 107 59 107 62 0 2
-41 -16 -91 -42 -50 -25 -93 -44 -94 -42 -2 2 31 21 73 43 42 22 110 59 152
82 80 46 111 55 70 22 -14 -11 23 4 82 33 122 60 140 77 24 22 -43 -20 -80
-33 -83 -31 -5 6 262 138 382 189 158 68 199 83 395 149 113 37 198 68 190 68
-8 0 -89 -24 -180 -53z m-1165 -562 c-36 -28 -61 -36 -30 -10 17 14 35 26 40
26 6 -1 1 -8 -10 -16z"/>
<path d="M5580 6630 c-8 -5 -10 -10 -5 -10 6 0 17 5 25 10 8 5 11 10 5 10 -5
0 -17 -5 -25 -10z"/>
<path d="M6878 6201 c-35 -28 -38 -53 -48 -336 -9 -266 -27 -360 -91 -487 -54
-107 -87 -148 -212 -267 -31 -29 -57 -61 -57 -69 0 -13 3 -12 15 4 9 11 14 14
15 6 0 -20 166 125 214 187 76 99 157 281 155 350 0 16 -13 -9 -31 -62 -20
-56 -35 -84 -41 -78 -6 6 -4 25 7 51 35 87 56 262 56 460 0 123 4 191 11 195
5 4 14 18 19 31 12 29 30 31 53 4 14 -16 20 -60 33 -213 8 -105 20 -210 25
-231 9 -34 15 -65 18 -98 2 -13 53 -68 63 -68 6 0 3 10 -8 21 l-19 22 32 -17
c50 -25 63 -19 16 9 -67 40 -81 83 -98 286 -14 167 -30 275 -44 297 -13 22
-56 24 -83 3z"/>
<path d="M8201 5904 c0 -11 3 -14 6 -6 3 7 2 16 -1 19 -3 4 -6 -2 -5 -13z"/>
<path d="M6872 5640 c0 -14 2 -19 5 -12 2 6 2 18 0 25 -3 6 -5 1 -5 -13z"/>
<path d="M7295 5638 c-22 -12 -56 -27 -75 -34 -23 -9 -28 -13 -15 -14 19 0
109 42 130 61 14 14 4 10 -40 -13z"/>
<path d="M7383 5621 c10 -28 9 -33 -12 -54 -13 -12 -21 -16 -17 -9 4 6 5 12 2
12 -19 0 -270 -167 -290 -193 -13 -18 -45 -75 -70 -127 -26 -52 -50 -98 -54
-102 -4 -4 -29 -1 -54 7 -55 16 -103 11 -173 -20 -43 -19 -81 -39 -215 -116
-33 -18 -40 -29 -40 -60 0 -32 28 -59 63 -59 15 0 57 12 94 26 80 30 132 28
170 -8 55 -51 68 -108 83 -354 13 -210 18 -231 51 -256 20 -15 30 -17 52 -9
56 22 59 37 68 344 8 303 17 365 73 490 36 83 128 217 172 252 86 68 104 89
115 125 13 43 2 131 -18 137 -9 3 -9 -3 0 -26z m-73 -115 c0 -2 -8 -10 -17
-17 -16 -13 -17 -12 -4 4 13 16 21 21 21 13z m-72 -74 c-81 -89 -131 -182
-176 -322 -39 -123 -52 -243 -52 -488 0 -187 -1 -201 -21 -223 l-20 -24 11 23
c6 13 10 40 8 60 -2 31 -6 37 -24 35 -18 -2 -22 5 -28 44 -8 62 -6 257 3 313
l8 45 13 -47 c8 -27 17 -48 21 -48 4 0 10 30 14 68 11 112 35 224 61 290 41
102 113 224 162 274 54 56 71 56 20 0z m-428 -408 c0 -2 -7 -4 -15 -4 -8 0
-15 4 -15 10 0 5 7 7 15 4 8 -4 15 -8 15 -10z m56 -89 c31 -75 45 -173 50
-345 5 -199 -9 -206 -20 -10 -11 189 -24 301 -40 348 -18 51 -11 56 10 7z"/>
<path d="M3770 5360 l-385 -5 444 -3 c244 -1 441 1 437 5 -9 9 -30 9 -496 3z"/>
<path d="M4795 5359 c192 -7 871 -11 864 -5 -2 2 -238 5 -524 8 -286 2 -439 1
-340 -3z"/>
<path d="M4293 5353 c9 -2 25 -2 35 0 9 3 1 5 -18 5 -19 0 -27 -2 -17 -5z"/>
<path d="M3231 5341 c-11 -7 -13 -25 -9 -75 5 -57 3 -66 -11 -66 -11 0 -12 -3
-4 -8 11 -7 23 -37 138 -357 32 -88 71 -194 86 -236 15 -41 24 -81 20 -87 -5
-9 -19 -9 -57 1 -37 9 -105 11 -274 5 -124 -3 -299 -8 -390 -10 -132 -2 -167
-6 -177 -18 -11 -13 -12 -13 -13 1 0 8 12 26 27 40 18 16 24 19 20 8 -13 -37
37 -4 82 54 25 34 83 104 127 157 45 53 86 106 92 117 6 10 59 80 117 153 111
140 135 177 140 216 3 28 -9 22 -45 -20 -30 -36 -253 -310 -437 -539 l-136
-167 8 -48 c3 -26 10 -76 13 -112 6 -58 12 -72 57 -130 43 -57 187 -234 264
-326 14 -17 44 -53 66 -79 22 -27 58 -70 80 -96 22 -26 79 -94 127 -151 47
-56 140 -166 205 -243 65 -77 165 -196 222 -265 58 -69 127 -152 156 -185 159
-186 247 -290 300 -355 140 -171 337 -396 357 -407 26 -14 45 -7 53 18 5 16
16 19 69 19 58 0 64 -2 75 -26 10 -22 16 -25 39 -19 15 3 35 14 46 23 18 16
103 118 156 187 14 18 52 65 85 105 88 108 136 167 199 245 79 99 138 172 234
289 94 114 98 119 337 421 198 251 246 310 295 369 20 22 49 59 65 81 16 22
54 70 85 106 30 37 75 93 100 124 25 32 66 83 91 114 62 76 82 118 81 168 0
29 6 47 19 59 14 13 19 31 19 68 0 50 -3 55 -93 167 -291 360 -440 531 -449
518 -7 -10 -8 -9 -4 6 6 24 -72 118 -81 98 -2 -7 -17 -13 -32 -13 -19 0 -31
-7 -38 -22 -6 -15 -8 -3 -5 43 3 51 1 68 -12 78 -9 8 -16 9 -16 3 0 -6 -10
-13 -22 -15 -20 -4 -19 -4 5 -6 15 0 28 -7 28 -13 2 -24 -3 -53 -11 -58 -9 -6
-30 -46 -30 -57 1 -4 7 3 16 17 l15 25 -6 -25 c-19 -73 -207 -641 -212 -637
-4 5 10 85 23 137 3 8 -4 -4 -15 -27 -11 -22 -29 -44 -40 -48 -36 -11 -28 -17
-451 360 -201 179 -290 252 -355 293 -51 32 -68 34 -45 7 11 -13 10 -14 -3
-10 -10 4 -18 -1 -22 -15 -4 -12 -5 -23 -3 -24 1 -2 44 -38 93 -82 50 -44 124
-108 165 -143 76 -65 250 -223 350 -319 30 -29 46 -49 35 -45 -11 4 7 -16 40
-44 64 -53 101 -91 94 -96 -2 -2 -101 1 -219 6 -327 13 -1490 3 -1500 -12 -4
-7 -16 -11 -26 -8 -17 4 -17 6 4 12 13 4 21 13 18 21 -3 7 89 99 227 226 128
117 256 235 285 262 29 27 55 46 58 43 4 -3 0 -12 -7 -19 -8 -7 -89 -82 -181
-166 -93 -85 -168 -156 -168 -160 0 -3 19 12 43 34 23 22 119 110 212 195 246
222 324 299 298 293 -20 -6 -23 -3 -23 24 0 17 -5 34 -10 37 -29 18 -185 -111
-669 -553 -118 -108 -139 -123 -165 -120 -27 3 -33 9 -50 56 -10 29 -20 51
-22 49 -2 -2 4 -28 14 -58 11 -30 22 -67 26 -84 6 -26 5 -28 -7 -15 -8 8 -33
71 -57 140 -23 69 -71 201 -106 293 -60 159 -76 211 -54 177 22 -33 8 8 -15
45 -24 39 -33 70 -17 62 4 -2 15 4 25 15 13 14 14 18 3 18 -8 0 -16 4 -18 10
-2 5 -9 6 -17 1z m1078 -87 c-13 -15 -96 -92 -183 -173 -88 -80 -238 -218
-334 -306 -194 -179 -225 -204 -216 -182 3 8 64 68 137 133 72 65 199 181 281
257 157 146 327 297 335 297 2 0 -6 -12 -20 -26z m386 -28 c71 -58 568 -501
640 -570 33 -31 54 -56 48 -54 -13 3 -628 544 -718 631 -57 56 -43 52 30 -7z
m1145 -46 c23 -28 46 -48 50 -45 8 5 209 -230 249 -289 38 -56 -59 50 -141
156 -51 64 -94 115 -96 113 -5 -5 2 -14 224 -285 143 -176 223 -263 159 -175
-41 57 -8 23 69 -70 65 -78 79 -102 53 -92 -38 15 -770 40 -814 28 -41 -11
-63 -3 -63 22 0 40 202 630 211 615 7 -10 9 -9 9 4 0 27 22 68 36 68 7 0 31
-23 54 -50z m-1557 -42 c-40 -40 -75 -69 -79 -65 -4 4 -5 8 -3 10 2 1 35 31
72 65 37 34 71 62 75 62 4 0 -26 -32 -65 -72z m1000 -524 c53 -49 43 -51 -13
-3 -25 21 -40 39 -35 39 6 0 27 -17 48 -36z m240 -135 c6 -63 5 -67 -19 -79
-13 -7 -24 -19 -24 -26 0 -8 11 -2 25 11 l24 25 389 0 c339 0 391 -2 402 -15
8 -10 10 -19 4 -25 -6 -6 -154 -14 -329 -20 -341 -10 -407 -15 -438 -32 -23
-12 -69 -108 -212 -443 -57 -135 -161 -375 -229 -533 -68 -158 -148 -343 -176
-412 -151 -361 -251 -579 -293 -635 -25 -33 -30 -10 -7 35 12 23 19 48 16 56
-3 8 -2 13 2 10 5 -3 18 15 30 40 30 60 27 70 -3 14 -13 -25 -24 -42 -25 -38
0 13 43 97 49 93 3 -1 7 7 7 18 2 30 178 457 451 1097 64 149 269 660 277 690
6 21 5 22 -4 8 -15 -25 -30 -22 -30 5 -1 22 -1 22 -16 -3 l-15 -25 7 25 c3 14
10 29 15 35 5 5 9 13 9 19 0 5 -16 -6 -36 -25 -21 -20 -61 -83 -95 -151 -53
-106 -63 -120 -101 -139 -24 -12 -62 -35 -84 -51 -48 -35 -96 -47 -179 -48
-58 -1 -102 -8 -265 -44 -109 -24 -279 -22 -415 5 -68 14 -150 23 -215 23
-113 1 -101 -3 -195 69 -5 4 -21 16 -35 26 -14 10 -58 82 -98 160 -41 78 -78
141 -83 141 -15 0 -11 -17 21 -87 45 -99 34 -91 -15 12 -42 88 -43 90 -54 62
-9 -24 -6 -39 20 -100 17 -40 41 -99 54 -132 13 -33 46 -116 74 -183 28 -68
51 -132 51 -143 0 -10 4 -19 8 -19 5 0 21 -33 37 -72 15 -40 38 -97 52 -126
27 -59 58 -131 163 -377 39 -93 134 -316 210 -495 147 -345 159 -377 141 -366
-21 13 -101 183 -468 996 -160 354 -277 610 -401 872 -37 77 -69 132 -84 141
-19 12 -94 16 -399 22 -273 4 -386 10 -415 20 -38 13 -51 34 -26 43 6 2 12 -3
12 -11 0 -17 24 -17 42 1 9 9 117 12 414 12 l402 0 13 38 c17 52 16 52 49 41
19 -7 35 -7 47 -1 24 14 53 -2 46 -26 -2 -11 3 -26 12 -36 15 -15 92 -16 889
-16 l872 0 -1 50 c-1 34 2 47 9 40 5 -5 29 -10 52 -10 37 0 45 4 60 30 10 16
19 28 20 27 0 -1 4 -32 7 -68z m-2103 4 c0 -4 -161 -9 -358 -11 -196 -2 -375
-5 -397 -8 -29 -4 -37 -3 -30 5 7 7 100 12 270 13 143 2 317 4 388 6 70 1 127
-1 127 -5z m1920 -3 c10 -6 -285 -10 -843 -10 -570 0 -856 3 -852 10 8 13
1674 13 1695 0z m983 -10 c9 -8 -217 -4 -578 10 -140 5 -84 6 185 3 212 -3
389 -9 393 -13z m57 -87 c0 -11 -3 -14 -8 -7 -4 6 -14 14 -22 17 -10 4 -8 6 8
6 15 1 22 -5 22 -16z m-106 -163 c-46 -58 -98 -111 -64 -65 28 39 102 125 106
125 3 0 -16 -27 -42 -60z m-923 3 c-12 -20 -14 -14 -5 12 4 9 9 14 11 11 3 -2
0 -13 -6 -23z m-328 -798 c-3 -9 -8 -14 -10 -11 -3 3 -2 9 2 15 9 16 15 13 8
-4z m-174 -426 c-89 -217 -189 -460 -222 -542 -33 -81 -62 -145 -64 -143 -4 4
89 238 294 736 135 329 145 351 150 347 2 -2 -69 -181 -158 -398z m-739 136
c0 -5 -5 -3 -10 5 -5 8 -10 20 -10 25 0 6 5 3 10 -5 5 -8 10 -19 10 -25z m39
-90 c0 -5 -6 1 -14 15 -8 14 -14 30 -14 35 0 6 6 -1 14 -15 8 -14 14 -29 14
-35z m30 -70 c0 -5 -6 1 -14 15 -8 14 -14 30 -14 35 0 6 6 -1 14 -15 8 -14 14
-29 14 -35z m40 -90 c0 -5 -8 6 -19 25 -11 19 -19 40 -19 45 0 6 8 -6 19 -25
11 -19 19 -39 19 -45z m111 -258 c51 -120 90 -220 87 -223 -2 -2 -30 58 -62
133 -32 76 -75 179 -96 229 -36 85 -50 129 -30 94 5 -8 50 -113 101 -233z"/>
<path d="M3487 4385 c10 -13 22 -25 26 -25 13 0 -11 37 -28 44 -13 5 -13 1 2
-19z"/>
<path d="M3576 4395 c-3 -8 -1 -15 5 -15 6 0 17 7 25 15 14 13 13 15 -4 15
-11 0 -22 -7 -26 -15z"/>
<path d="M4366 5337 c3 -10 9 -15 12 -12 3 3 0 11 -7 18 -10 9 -11 8 -5 -6z"/>
<path d="M4567 5343 c-4 -3 -7 -12 -7 -19 0 -11 5 -11 25 -2 13 6 22 15 19 19
-6 11 -28 12 -37 2z"/>
<path d="M4581 5207 c2 -1 15 -11 29 -22 l25 -20 -19 23 c-11 12 -24 22 -29
22 -6 0 -8 -1 -6 -3z"/>
<path d="M3294 5135 c17 -40 35 -73 36 -64 0 10 -40 99 -46 99 -2 0 2 -16 10
-35z"/>
<path d="M3335 5040 c15 -51 78 -210 82 -207 4 4 -76 219 -84 227 -3 3 -2 -6
2 -20z"/>
<path d="M4880 4948 c0 -3 30 -31 68 -63 37 -33 58 -49 47 -36 -22 26 -115
105 -115 99z"/>
<path d="M5531 4803 c-1 -6 -4 -20 -7 -30 -5 -17 -5 -17 6 0 6 10 9 23 6 30
-3 9 -5 9 -5 0z"/>
<path d="M3729 4631 c-53 -47 -95 -88 -93 -90 2 -2 45 34 96 80 51 46 95 85
97 86 2 2 2 5 0 7 -2 2 -47 -36 -100 -83z"/>
<path d="M2175 4678 c-11 -6 -131 -80 -267 -165 -479 -298 -698 -474 -749
-598 -7 -17 -15 -79 -19 -140 -9 -140 -28 -183 -183 -405 -246 -351 -448 -708
-551 -971 -43 -111 -53 -140 -96 -304 -57 -212 -69 -469 -31 -653 29 -137 53
-198 114 -289 207 -306 566 -465 1104 -488 502 -23 1171 116 1748 361 159 67
584 277 660 326 22 14 76 46 120 72 44 26 101 62 126 79 26 18 87 57 135 87
150 93 193 145 179 217 -9 51 -40 59 -246 67 -223 9 -364 36 -520 101 -142 58
-162 64 -153 40 6 -14 -28 -52 -148 -169 -137 -134 -169 -160 -284 -227 -226
-134 -399 -212 -626 -282 -269 -84 -456 -115 -763 -127 l-210 -8 225 3 c124 2
243 6 265 10 145 22 330 61 453 96 160 45 202 48 62 4 -50 -15 -88 -30 -86
-33 6 -5 223 65 246 79 11 7 8 8 -10 3 -14 -4 -32 -8 -40 -11 -24 -6 62 33 90
41 19 6 21 5 10 -3 -57 -40 123 37 359 154 199 98 273 143 351 213 60 53 140
171 143 211 1 23 6 30 17 25 154 -60 235 -86 326 -103 99 -18 151 -23 386 -35
136 -7 129 -20 -32 -61 -58 -14 -123 -32 -145 -40 -23 -7 -70 -19 -105 -25
-36 -6 -101 -20 -145 -30 -44 -11 -127 -22 -185 -26 -131 -8 -196 -26 -257
-70 -146 -106 -297 -200 -420 -262 -552 -279 -1248 -397 -1725 -291 -284 62
-458 181 -556 378 -46 93 -47 95 -47 192 0 105 10 134 40 109 18 -15 18 -18
16 100 0 65 2 89 8 75 5 -11 10 -39 10 -62 1 -23 6 -45 11 -48 6 -3 10 -17 10
-29 0 -13 12 -64 26 -112 14 -49 27 -93 28 -99 8 -31 28 -66 64 -111 44 -55
126 -126 116 -99 -5 11 12 6 58 -20 70 -38 196 -85 225 -84 10 0 -12 11 -48
24 -136 47 -199 84 -279 164 -94 92 -144 189 -161 305 -12 91 3 292 31 411 43
183 177 503 272 652 131 203 178 270 292 418 157 204 615 677 728 752 57 39
109 127 122 209 3 21 13 121 21 221 17 193 12 256 -21 280 -22 16 -62 16 -89
1z m88 -22 c14 -21 14 -34 2 -122 -8 -55 -15 -118 -15 -141 0 -24 -4 -43 -9
-43 -6 0 -8 46 -5 113 5 103 4 110 -10 93 -18 -22 -77 -174 -101 -257 -14 -52
-22 -62 -103 -128 -137 -113 -414 -383 -541 -527 -191 -216 -403 -503 -541
-734 -73 -121 -232 -436 -250 -495 -20 -62 -41 -96 -91 -146 -29 -29 -54 -66
-67 -100 -21 -58 -87 -308 -97 -373 -8 -48 -25 -31 -25 25 0 19 -6 44 -14 54
-13 17 -14 17 -27 -11 -8 -16 -21 -29 -29 -29 -23 0 -28 -29 -30 -160 -1 -92
-4 -114 -11 -95 -12 28 -14 171 -4 222 5 25 4 29 -5 18 -8 -11 -9 3 -4 53 9
101 25 139 18 45 -10 -122 2 -91 15 39 18 181 22 204 32 198 5 -4 9 6 9 22 0
29 61 218 101 313 35 84 180 365 234 455 103 172 208 325 218 318 6 -3 7 -1 3
6 -4 7 29 64 82 139 138 197 162 255 162 390 0 97 18 148 72 198 32 30 32 27
4 -38 -16 -39 -5 -54 13 -19 48 89 233 244 489 411 371 240 437 285 437 295 1
41 64 49 88 11z m-26 -358 c-3 -8 -6 -5 -6 6 -1 11 2 17 5 13 3 -3 4 -12 1
-19z m-5 -113 c-6 -34 -12 -32 -12 6 0 16 4 28 9 25 4 -3 6 -17 3 -31z m2205
-2377 c-3 -8 -6 -5 -6 6 -1 11 2 17 5 13 3 -3 4 -12 1 -19z m-80 -54 c0 -16
-44 -47 -157 -114 -28 -17 -49 -26 -46 -21 3 5 46 33 96 62 50 30 86 55 80 57
-8 3 11 26 26 32 0 0 1 -7 1 -16z m-617 -388 c0 -2 -7 -7 -16 -10 -8 -3 -12
-2 -9 4 6 10 25 14 25 6z"/>
<path d="M1171 3844 c0 -11 3 -14 6 -6 3 7 2 16 -1 19 -3 4 -6 -2 -5 -13z"/>
<path d="M1123 3551 c-28 -47 -56 -85 -63 -83 -6 1 -9 -2 -6 -7 4 -5 0 -15 -6
-23 -7 -7 -42 -57 -77 -110 -36 -54 -68 -98 -73 -98 -4 0 -7 -3 -6 -7 3 -15
-14 -43 -23 -37 -5 3 -9 -2 -9 -11 0 -8 -11 -32 -24 -53 -75 -116 -276 -488
-276 -509 0 -9 25 32 87 147 49 91 108 193 138 240 100 159 144 226 244 370
108 156 156 240 149 259 -2 5 -26 -30 -55 -78z"/>
<path d="M6286 3014 c-65 -143 -146 -253 -264 -362 -133 -122 -182 -172 -182
-184 0 -15 24 3 132 102 159 145 247 259 309 400 36 84 53 130 47 130 -2 0
-21 -39 -42 -86z"/>
<path d="M3630 1960 c19 -11 40 -19 45 -19 6 0 -6 8 -25 19 -19 11 -39 19 -45
19 -5 0 6 -8 25 -19z"/>
<path d="M1346 1231 c12 -5 55 -12 95 -15 54 -3 62 -3 29 3 -99 17 -145 21
-124 12z"/>
</g>
</svg>
